<svg id="圖層_1" data-name="圖層 1" xmlns="http://www.w3.org/2000/svg" viewBox="0 0 754 194"><defs><style>.cls-1{fill:none;stroke:#000;stroke-miterlimit:10;stroke-width:3px;}</style></defs><title>font</title><path class="cls-1" d="M667,158s4.18,5.54,7.26,5.54,5.66-6.15,8.49-6.15,7.63,6.64,10.58,6.64,5-6.27,9-6.27,6.39,6.27,10.09,6.27,6.27-6.64,9.1-6.64,6.77,6.64,10.21,6.64,6.28-6.64,6.28-6.64"/><path class="cls-1" d="M667,169.29s4.18,5.54,7.26,5.54,5.66-6.15,8.49-6.15,7.63,6.64,10.58,6.64,5-6.27,9-6.27,6.39,6.27,10.09,6.27,6.27-6.64,9.1-6.64,6.77,6.64,10.21,6.64,6.28-6.64,6.28-6.64"/><path class="cls-1" d="M667,180.61s4.18,5.54,7.26,5.54,5.66-6.15,8.49-6.15,7.63,6.64,10.58,6.64,5-6.27,9-6.27,6.39,6.27,10.09,6.27,6.27-6.64,9.1-6.64,6.77,6.64,10.21,6.64S738,180,738,180"/><path d="M671.23,142.77v5.46H625.77v-5.46h45.46M672,142H625v7h47v-7Z"/><path class="cls-1" d="M16.69,100V21.79H40.85s11.5,1.15,11.5,12.65-9.2,11.5-9.2,11.5H29.35v-9.2"/><path class="cls-1" d="M29.35,9.14h16.1s18.4,2.3,18.4,23-9.2,25.3-16.1,25.3H29.35V89.65"/><path d="M30.49,28.69a2.3,2.3,0,0,0-.55,4.53,2.2,2.2,0,0,0,.56.07,2.3,2.3,0,0,0,.55-4.53,2.15,2.15,0,0,0-.56-.07Z"/><path d="M126.73,89a2.14,2.14,0,0,0-.51,4.21,1.86,1.86,0,0,0,.52.07,2.14,2.14,0,0,0,.51-4.21,1.86,1.86,0,0,0-.52-.07Z"/><path class="cls-1" d="M88.28,93.25V18.48h28.84s15.49,0,15.49,15.48-13.35,15.49-13.35,15.49H106.44"/><line class="cls-1" x1="97.9" y1="49.45" x2="123.53" y2="85.77"/><line class="cls-1" x1="97.9" y1="66.54" x2="97.9" y2="92.18"/><path class="cls-1" d="M140.62,92.18l-23.5-32.05s25.64,0,25.64-23.5S125.67,11,125.67,11H97.9"/><path d="M304.44,14.25a2.14,2.14,0,0,0-.51,4.21,2.31,2.31,0,0,0,.52.06,2.14,2.14,0,0,0,.51-4.21,2.37,2.37,0,0,0-.52-.06Z"/><polyline class="cls-1" points="298.04 16.39 257.45 16.39 257.45 91.16"/><polyline class="cls-1" points="269.19 26 269.19 43.09 305.51 43.09"/><polyline class="cls-1" points="296.97 53.77 269.19 53.77 269.19 90.09"/><line class="cls-1" x1="267.06" y1="6.77" x2="305.51" y2="6.77"/><path d="M506.09,89.07a2.14,2.14,0,1,0,2.14,2.14,2.13,2.13,0,0,0-2.14-2.14Z"/><polyline class="cls-1" points="493.28 5.75 493.28 48.48 506.09 48.48 506.09 84.8"/><line class="cls-1" x1="507.16" y1="15.37" x2="507.16" y2="38.87"/><line class="cls-1" x1="494.34" y1="58.09" x2="494.34" y2="92.27"/><path d="M460.8,78.39a2.14,2.14,0,0,0-.51,4.21,2.22,2.22,0,0,0,.51.06,2.14,2.14,0,0,0,.51-4.21,2.22,2.22,0,0,0-.51-.06Z"/><polyline class="cls-1" points="418.07 5.75 418.07 80.52 454.39 80.52"/><line class="cls-1" x1="429.82" y1="15.37" x2="429.82" y2="70.91"/><line class="cls-1" x1="429.82" y1="90.14" x2="461.87" y2="90.14"/><path d="M565.34,11.79a2.14,2.14,0,1,0,2.14,2.14,2.14,2.14,0,0,0-2.14-2.14Z"/><path class="cls-1" d="M583.08,25.72a29.52,29.52,0,1,1-38.87,28c0-16.31,13.76-29.52,30.06-29.52L574,13a41,41,0,1,1-14.67,2.7"/><path d="M345.6,11.79a2.14,2.14,0,1,0,2.14,2.14,2.14,2.14,0,0,0-2.14-2.14Z"/><path class="cls-1" d="M363.34,25.72a29.52,29.52,0,1,1-38.87,28c0-16.31,13.76-29.52,30.06-29.52L354.26,13a41,41,0,1,1-14.67,2.7"/><path d="M193.11,11.79a2.14,2.14,0,1,0,2.13,2.14,2.14,2.14,0,0,0-2.13-2.14Z"/><path class="cls-1" d="M210.85,25.72a29.53,29.53,0,1,1-38.88,28c0-16.31,13.77-29.52,30.07-29.52L201.77,13a41,41,0,1,1-14.67,2.7"/></svg>