<svg id="圖層_1" data-name="圖層 1" xmlns="http://www.w3.org/2000/svg" viewBox="0 0 27 27"><defs><style>.cls-1{fill:none;stroke:#000;stroke-miterlimit:10;stroke-width:0.95px;}</style></defs><title>icon01</title><line class="cls-1" x1="6.8" y1="4.58" x2="9.63" y2="7.41"/><line class="cls-1" x1="22.36" y1="20.14" x2="19.53" y2="17.31"/><path class="cls-1" d="M23.07,16.61s-2.83-2.83-4.25-1.42-3.53,2.12-4.24,1.42l-2.12-2.13-2.12-2.12c-.71-.7,0-2.83,1.41-4.24s-1.41-4.24-1.41-4.24S7.51-.37,4.68,2.46A8.76,8.76,0,0,0,1.85,8.12c0,4.24,6.37,10.61,6.37,10.61s6.36,6.36,10.6,6.36a8.76,8.76,0,0,0,5.66-2.83C27.31,19.43,23.07,16.61,23.07,16.61Z"/></svg>